999
"DXF R12 Output" (www.mydxf.blogspot.com)
 0 
SECTION
 2 
HEADER
 9 
$ACADVER
 1 
AC1009
 9 
$EXTMIN
 10 
 0 
 20 
 0 
 9 
$EXTMAX
 10 
 8.5 
 20 
 11 
 0 
ENDSEC
 0 
SECTION
 2 
ENTITIES
0
LINE
8
Layer 1
10
0.793749
20
297.794000
11
-0.793749
21
296.206000
0
LINE
8
Layer 1
10
0.000000
20
298.323000
11
0.000000
21
295.677000
0
LINE
8
Layer 1
10
2.116660
20
295.942000
11
1.058330
21
294.883670
0
LINE
8
Layer 1
10
1.587500
20
296.471000
11
0.529170
21
295.412670
0
LINE
8
Layer 1
10
1.058330
20
297.000000
11
0.000000
21
295.941670
0
LINE
8
Layer 1
10
0.793749
20
297.794000
11
-0.793749
21
296.206000
0
LINE
8
Layer 1
10
0.000000
20
298.323000
11
0.000000
21
295.677000
0
LINE
8
Layer 1
10
2.116660
20
295.942000
11
1.058330
21
294.884000
0
LINE
8
Layer 1
10
1.587500
20
296.471000
11
0.529169
21
295.413000
0
LINE
8
Layer 1
10
1.058330
20
297.000000
11
0.000000
21
295.942000
0
LINE
8
Layer 1
10
0.793749
20
297.794000
11
-0.793749
21
296.206000
0
LINE
8
Layer 1
10
0.000000
20
298.323000
11
0.000000
21
295.677000
0
LINE
8
Layer 1
10
2.116660
20
295.942000
11
1.058330
21
294.884000
0
LINE
8
Layer 1
10
1.587500
20
296.471000
11
0.529169
21
295.413000
0
LINE
8
Layer 1
10
1.058330
20
297.000000
11
0.000000
21
295.942000
0
LINE
8
Layer
10
45.032300
20
38.254000
11
44.181100
21
38.050200
0
LINE
8
Layer
10
44.181100
20
38.050200
11
43.667300
21
38.228000
0
LINE
8
Layer
10
43.667300
20
38.228000
11
32.149500
21
26.183400
0
LINE
8
Layer
10
32.149500
20
26.183400
11
32.274600
21
25.408200
0
LINE
8
Layer
10
32.274600
20
25.408200
11
31.916600
21
24.643600
0
LINE
8
Layer
10
31.916600
20
24.643600
11
30.973400
21
24.228200
0
LINE
8
Layer
10
30.973400
20
24.228200
11
30.011600
21
24.603900
0
LINE
8
Layer
10
30.011600
20
24.603900
11
29.596300
21
25.548400
0
LINE
8
Layer
10
29.596300
20
25.548400
11
29.970400
21
26.508900
0
LINE
8
Layer
10
29.970400
20
26.508900
11
30.755900
21
26.934800
0
LINE
8
Layer
10
30.755900
20
26.934800
11
31.606300
21
26.781400
0
LINE
8
Layer
10
31.606300
20
26.781400
11
43.109800
21
38.787900
0
LINE
8
Layer
10
43.109800
20
38.787900
11
43.024100
21
39.892000
0
LINE
8
Layer
10
43.024100
20
39.892000
11
43.732400
21
40.663000
0
LINE
8
Layer
10
43.732400
20
40.663000
11
44.789900
21
40.702900
0
LINE
8
Layer
10
44.789900
20
40.702900
11
45.547700
21
39.989400
0
LINE
8
Layer
10
45.547700
20
39.989400
11
45.589500
21
38.961700
0
LINE
8
Layer
10
45.589500
20
38.961700
11
45.032300
21
38.254000
0
LINE
8
Layer
10
39.977700
20
10.316400
11
26.257100
21
24.794400
0
LINE
8
Layer
10
26.257100
20
24.794400
11
12.536600
21
10.316400
0
LINE
8
Layer
10
12.536600
20
10.316400
11
11.885000
21
10.935500
0
LINE
8
Layer
10
11.885000
20
10.935500
11
25.638400
21
25.447900
0
LINE
8
Layer
10
25.638400
20
25.447900
11
11.885300
21
39.958700
0
LINE
8
Layer
10
11.885300
20
39.958700
11
12.537100
21
40.576200
0
LINE
8
Layer
10
12.537100
20
40.576200
11
26.257100
21
26.098800
0
LINE
8
Layer
10
26.257100
20
26.098800
11
39.976900
21
40.576200
0
LINE
8
Layer
10
39.976900
20
40.576200
11
40.628800
21
39.958700
0
LINE
8
Layer
10
40.628800
20
39.958700
11
26.875800
21
25.447900
0
LINE
8
Layer
10
26.875800
20
25.447900
11
40.629600
21
10.935500
0
LINE
8
Layer
10
40.629600
20
10.935500
11
39.977700
21
10.316400
0
LINE
8
Layer
10
8.978520
20
10.697400
11
7.931300
21
10.652400
0
LINE
8
Layer
10
7.931300
20
10.652400
11
7.161680
21
11.358800
0
LINE
8
Layer
10
7.161680
20
11.358800
11
7.115830
21
12.401300
0
LINE
8
Layer
10
7.115830
20
12.401300
11
7.646980
21
13.068000
0
LINE
8
Layer
10
7.646980
20
13.068000
11
8.219060
21
13.279700
0
LINE
8
Layer
10
8.219060
20
13.279700
11
8.839740
21
13.218900
0
LINE
8
Layer
10
8.839740
20
13.218900
11
9.047420
21
13.110400
0
LINE
8
Layer
10
9.047420
20
13.110400
11
20.423900
21
25.006000
0
LINE
8
Layer
10
20.423900
20
25.006000
11
20.304900
21
25.770700
0
LINE
8
Layer
10
20.304900
20
25.770700
11
20.665900
21
26.482400
0
LINE
8
Layer
10
20.665900
20
26.482400
11
21.593600
21
26.889900
0
LINE
8
Layer
10
21.593600
20
26.889900
11
22.538900
21
26.522100
0
LINE
8
Layer
10
22.538900
20
26.522100
11
22.947500
21
25.596100
0
LINE
8
Layer
10
22.947500
20
25.596100
11
22.579900
21
24.651500
0
LINE
8
Layer
10
22.579900
20
24.651500
11
21.816300
21
24.241400
0
LINE
8
Layer
10
21.816300
20
24.241400
11
20.988300
21
24.397500
0
LINE
8
Layer
10
20.988300
20
24.397500
11
9.625000
21
12.515100
0
LINE
8
Layer
10
9.625000
20
12.515100
11
9.752240
21
12.086400
0
LINE
8
Layer
10
9.752240
20
12.086400
11
9.681750
21
11.472600
0
LINE
8
Layer
10
9.681750
20
11.472600
11
8.978520
21
10.697400
0
LINE
8
Layer
10
44.805500
20
42.458200
11
42.397300
21
44.866700
0
LINE
8
Layer
10
42.397300
20
44.866700
11
10.052200
21
44.866700
0
LINE
8
Layer
10
10.052200
20
44.866700
11
7.645390
21
42.458200
0
LINE
8
Layer
10
7.645390
20
42.458200
11
7.645390
21
13.914700
0
LINE
8
Layer
10
7.645390
20
13.914700
11
6.872410
21
13.430500
0
LINE
8
Layer
10
6.872410
20
13.430500
11
6.361320
21
12.636800
0
LINE
8
Layer
10
6.361320
20
12.636800
11
6.433360
21
10.991100
0
LINE
8
Layer
10
6.433360
20
10.991100
11
7.649120
21
9.874530
0
LINE
8
Layer
10
7.649120
20
9.874530
11
8.361510
21
9.755470
0
LINE
8
Layer
10
8.361510
20
9.755470
11
10.967900
21
6.247100
0
LINE
8
Layer
10
10.967900
20
6.247100
11
12.291400
21
5.850220
0
LINE
8
Layer
10
12.291400
20
5.850220
11
42.397300
21
5.850220
0
LINE
8
Layer
10
42.397300
20
5.850220
11
44.805500
21
8.257930
0
LINE
8
Layer
10
44.805500
20
8.257930
11
44.805500
21
37.366800
0
LINE
8
Layer
10
44.805500
20
37.366800
11
45.735300
21
37.839100
0
LINE
8
Layer
10
45.735300
20
37.839100
11
46.344400
21
38.725500
0
LINE
8
Layer
10
46.344400
20
38.725500
11
46.272100
21
40.373000
0
LINE
8
Layer
10
46.272100
20
40.373000
11
45.056100
21
41.487700
0
LINE
8
Layer
10
45.056100
20
41.487700
11
44.805500
21
41.550900
0
LINE
8
Layer
10
44.805500
20
41.550900
11
44.805500
21
42.458200
0
LINE
8
Layer
10
39.868700
20
1.016290
11
7.545620
21
0.976602
0
LINE
8
Layer
10
7.545620
20
0.976602
11
5.822860
21
1.275580
0
LINE
8
Layer
10
5.822860
20
1.275580
11
2.842790
21
5.069700
0
LINE
8
Layer
10
2.842790
20
5.069700
11
2.036100
21
7.218120
0
LINE
8
Layer
10
2.036100
20
7.218120
11
2.036100
21
31.091400
0
LINE
8
Layer
10
2.036100
20
31.091400
11
2.772220
21
31.580900
0
LINE
8
Layer
10
2.772220
20
31.580900
11
3.064400
21
32.431300
0
LINE
8
Layer
10
3.064400
20
32.431300
11
2.656700
21
33.418200
0
LINE
8
Layer
10
2.656700
20
33.418200
11
1.671010
21
33.827200
0
LINE
8
Layer
10
1.671010
20
33.827200
11
0.684651
21
33.418200
0
LINE
8
Layer
10
0.684651
20
33.418200
11
0.276521
21
32.431300
0
LINE
8
Layer
10
0.276521
20
32.431300
11
0.567388
21
31.583600
0
LINE
8
Layer
10
0.567388
20
31.583600
11
1.299970
21
31.094100
0
LINE
8
Layer
10
1.299970
20
31.094100
11
1.299970
21
7.091120
0
LINE
8
Layer
10
1.299970
20
7.091120
11
2.235120
21
4.675470
0
LINE
8
Layer
10
2.235120
20
4.675470
11
5.470470
21
0.592957
0
LINE
8
Layer
10
5.470470
20
0.592957
11
7.461770
21
0.278103
0
LINE
8
Layer
10
7.461770
20
0.278103
11
39.875300
21
0.278103
0
LINE
8
Layer
10
39.875300
20
0.278103
11
39.868700
21
1.016290
0
LINE
8
Layer
10
4.218040
20
48.609000
11
5.239460
21
48.610000
0
LINE
8
Layer
10
5.239460
20
48.610000
11
5.962960
21
47.887400
0
LINE
8
Layer
10
5.962960
20
47.887400
11
5.964230
21
46.867700
0
LINE
8
Layer
10
5.964230
20
46.867700
11
5.241470
21
46.142500
0
LINE
8
Layer
10
5.241470
20
46.142500
11
4.219780
21
46.142500
0
LINE
8
Layer
10
4.219780
20
46.142500
11
3.496830
21
46.864000
0
LINE
8
Layer
10
3.496830
20
46.864000
11
3.495830
21
47.885100
0
LINE
8
Layer
10
3.495830
20
47.885100
11
4.218040
21
48.609000
0
LINE
8
Layer
10
10.626400
20
3.670060
11
8.885650
21
3.950520
0
LINE
8
Layer
10
8.885650
20
3.950520
11
5.924990
21
7.731410
0
LINE
8
Layer
10
5.924990
20
7.731410
11
5.085660
21
9.911570
0
LINE
8
Layer
10
5.085660
20
9.911570
11
5.085660
21
45.275200
0
LINE
8
Layer
10
5.085660
20
45.275200
11
6.060170
21
45.722300
0
LINE
8
Layer
10
6.060170
20
45.722300
11
6.698870
21
46.621400
0
LINE
8
Layer
10
6.698870
20
46.621400
11
6.802300
21
47.029700
0
LINE
8
Layer
10
6.802300
20
47.029700
11
36.275700
21
47.029700
0
LINE
8
Layer
10
36.275700
20
47.029700
11
37.672900
21
47.409900
0
LINE
8
Layer
10
37.672900
20
47.409900
11
38.528000
21
47.088100
0
LINE
8
Layer
10
38.528000
20
47.088100
11
39.460400
21
47.474400
0
LINE
8
Layer
10
39.460400
20
47.474400
11
39.846200
21
48.406500
0
LINE
8
Layer
10
39.846200
20
48.406500
11
39.460400
21
49.337900
0
LINE
8
Layer
10
39.460400
20
49.337900
11
38.528000
21
49.723900
0
LINE
8
Layer
10
38.528000
20
49.723900
11
37.594900
21
49.337900
0
LINE
8
Layer
10
37.594900
20
49.337900
11
37.208600
21
48.406500
0
LINE
8
Layer
10
37.208600
20
48.406500
11
37.266800
21
48.040600
0
LINE
8
Layer
10
37.266800
20
48.040600
11
36.275700
21
47.775200
0
LINE
8
Layer
10
36.275700
20
47.775200
11
6.774750
21
47.775200
0
LINE
8
Layer
10
6.774750
20
47.775200
11
6.317850
21
48.707900
0
LINE
8
Layer
10
6.317850
20
48.707900
11
5.438870
21
49.319600
0
LINE
8
Layer
10
5.438870
20
49.319600
11
3.826210
21
49.249800
0
LINE
8
Layer
10
3.826210
20
49.249800
11
2.737140
21
48.060200
0
LINE
8
Layer
10
2.737140
20
48.060200
11
2.807410
21
46.447300
0
LINE
8
Layer
10
2.807410
20
46.447300
11
3.997660
21
45.357200
0
LINE
8
Layer
10
3.997660
20
45.357200
11
4.349000
21
45.268300
0
LINE
8
Layer
10
4.349000
20
45.268300
11
4.349000
21
9.781920
0
LINE
8
Layer
10
4.349000
20
9.781920
11
5.284150
21
7.363640
0
LINE
8
Layer
10
5.284150
20
7.363640
11
8.519470
21
3.283770
0
LINE
8
Layer
10
8.519470
20
3.283770
11
10.510800
21
2.966270
0
LINE
8
Layer
10
10.510800
20
2.966270
11
45.256700
21
2.958330
0
LINE
8
Layer
10
45.256700
20
2.958330
11
45.745600
21
2.217500
0
LINE
8
Layer
10
45.745600
20
2.217500
11
46.599200
21
1.923810
0
LINE
8
Layer
10
46.599200
20
1.923810
11
47.585300
21
2.331270
0
LINE
8
Layer
10
47.585300
20
2.331270
11
47.992400
21
3.315520
0
LINE
8
Layer
10
47.992400
20
3.315520
11
47.585300
21
4.302410
0
LINE
8
Layer
10
47.585300
20
4.302410
11
46.599200
21
4.712510
0
LINE
8
Layer
10
46.599200
20
4.712510
11
45.755100
21
4.424120
0
LINE
8
Layer
10
45.755100
20
4.424120
11
45.264100
21
3.701810
0
LINE
8
Layer
10
45.264100
20
3.701810
11
10.626400
21
3.670060
 0 
ENDSEC
 0 
EOF