999
"DXF R12 Output" (www.mydxf.blogspot.com)
 0 
SECTION
 2 
HEADER
 9 
$ACADVER
 1 
AC1009
 9 
$EXTMIN
 10 
 0 
 20 
 0 
 9 
$EXTMAX
 10 
 8.5 
 20 
 11 
 0 
ENDSEC
 0 
SECTION
 2 
ENTITIES
0
LINE
8
Layer 1
10
0.793749
20
297.794000
11
-0.793749
21
296.206000
0
LINE
8
Layer 1
10
0.000000
20
298.323000
11
0.000000
21
295.677000
0
LINE
8
Layer 1
10
2.116660
20
295.942000
11
1.058330
21
294.883670
0
LINE
8
Layer 1
10
1.587500
20
296.471000
11
0.529170
21
295.412670
0
LINE
8
Layer 1
10
1.058330
20
297.000000
11
0.000000
21
295.941670
0
LINE
8
Layer 1
10
0.793749
20
297.794000
11
-0.793749
21
296.206000
0
LINE
8
Layer 1
10
0.000000
20
298.323000
11
0.000000
21
295.677000
0
LINE
8
Layer 1
10
2.116660
20
295.942000
11
1.058330
21
294.884000
0
LINE
8
Layer 1
10
1.587500
20
296.471000
11
0.529169
21
295.413000
0
LINE
8
Layer 1
10
1.058330
20
297.000000
11
0.000000
21
295.942000
0
LINE
8
Layer 1
10
0.793749
20
297.794000
11
-0.793749
21
296.206000
0
LINE
8
Layer 1
10
0.000000
20
298.323000
11
0.000000
21
295.677000
0
LINE
8
Layer 1
10
2.116660
20
295.942000
11
1.058330
21
294.884000
0
LINE
8
Layer 1
10
1.587500
20
296.471000
11
0.529169
21
295.413000
0
LINE
8
Layer 1
10
1.058330
20
297.000000
11
0.000000
21
295.942000
0
LINE
8
Layer 1
10
0.793749
20
297.794000
11
-0.793749
21
296.206000
0
LINE
8
Layer 1
10
0.000000
20
298.323000
11
0.000000
21
295.677000
0
LINE
8
Layer 1
10
2.116660
20
295.942000
11
1.058330
21
294.884000
0
LINE
8
Layer 1
10
1.587500
20
296.471000
11
0.529169
21
295.413000
0
LINE
8
Layer 1
10
1.058330
20
297.000000
11
0.000000
21
295.942000
0
LINE
8
Layer
10
10.318100
20
3.888390
11
8.606853
21
5.313403
0
LINE
8
Layer
10
8.606853
20
5.313403
11
6.907610
21
6.942790
0
LINE
8
Layer
10
6.907610
20
6.942790
11
5.216910
21
8.717690
0
LINE
8
Layer
10
5.216910
20
8.717690
11
5.375509
21
10.609460
0
LINE
8
Layer
10
5.375509
20
10.609460
11
5.573081
21
11.981817
0
LINE
8
Layer
10
5.573081
20
11.981817
11
6.012975
21
13.334032
0
LINE
8
Layer
10
6.012975
20
13.334032
11
6.843374
21
15.020579
0
LINE
8
Layer
10
6.843374
20
15.020579
11
8.212459
21
17.395930
0
LINE
8
Layer
10
8.212459
20
17.395930
11
9.189153
21
19.319436
0
LINE
8
Layer
10
9.189153
20
19.319436
11
9.472419
21
21.100090
0
LINE
8
Layer
10
9.472419
20
21.100090
11
9.427516
21
22.737431
0
LINE
8
Layer
10
9.427516
20
22.737431
11
8.929677
21
24.032090
0
LINE
8
Layer
10
8.929677
20
24.032090
11
8.407069
21
24.833149
0
LINE
8
Layer
10
8.407069
20
24.833149
11
7.789171
21
25.482186
0
LINE
8
Layer
10
7.789171
20
25.482186
11
7.100948
21
25.971359
0
LINE
8
Layer
10
7.100948
20
25.971359
11
6.367364
21
26.292824
0
LINE
8
Layer
10
6.367364
20
26.292824
11
5.613383
21
26.438738
0
LINE
8
Layer
10
5.613383
20
26.438738
11
4.863969
21
26.401257
0
LINE
8
Layer
10
4.863969
20
26.401257
11
4.144086
21
26.172539
0
LINE
8
Layer
10
4.144086
20
26.172539
11
3.478697
21
25.744740
0
LINE
8
Layer
10
3.478697
20
25.744740
11
2.772836
21
24.966926
0
LINE
8
Layer
10
2.772836
20
24.966926
11
2.487349
21
24.118735
0
LINE
8
Layer
10
2.487349
20
24.118735
11
2.614469
21
23.109062
0
LINE
8
Layer
10
2.614469
20
23.109062
11
3.146431
21
21.846800
0
LINE
8
Layer
10
3.146431
20
21.846800
11
3.968112
21
19.888010
0
LINE
8
Layer
10
3.968112
20
19.888010
11
2.863382
21
17.345500
0
LINE
8
Layer
10
2.863382
20
17.345500
11
1.758652
21
15.168560
0
LINE
8
Layer
10
1.758652
20
15.168560
11
1.269647
21
16.745610
0
LINE
8
Layer
10
1.269647
20
16.745610
11
0.764901
21
18.681554
0
LINE
8
Layer
10
0.764901
20
18.681554
11
0.448090
21
20.654189
0
LINE
8
Layer
10
0.448090
20
20.654189
11
0.312257
21
22.725664
0
LINE
8
Layer
10
0.312257
20
22.725664
11
0.350443
21
24.958130
0
LINE
8
Layer
10
0.350443
20
24.958130
11
0.566263
21
27.244844
0
LINE
8
Layer
10
0.566263
20
27.244844
11
0.968465
21
29.442222
0
LINE
8
Layer
10
0.968465
20
29.442222
11
1.557491
21
31.551267
0
LINE
8
Layer
10
1.557491
20
31.551267
11
2.333782
21
33.572984
0
LINE
8
Layer
10
2.333782
20
33.572984
11
3.297780
21
35.508375
0
LINE
8
Layer
10
3.297780
20
35.508375
11
4.449927
21
37.358444
0
LINE
8
Layer
10
4.449927
20
37.358444
11
5.790664
21
39.124194
0
LINE
8
Layer
10
5.790664
20
39.124194
11
7.320433
21
40.806630
0
LINE
8
Layer
10
7.320433
20
40.806630
11
8.734223
21
42.126288
0
LINE
8
Layer
10
8.734223
20
42.126288
11
10.231726
21
43.317966
0
LINE
8
Layer
10
10.231726
20
43.317966
11
13.443465
21
45.311319
0
LINE
8
Layer
10
13.443465
20
45.311319
11
16.886840
21
46.774563
0
LINE
8
Layer
10
16.886840
20
46.774563
11
20.493042
21
47.695573
0
LINE
8
Layer
10
20.493042
20
47.695573
11
24.193261
21
48.062220
0
LINE
8
Layer
10
24.193261
20
48.062220
11
27.918689
21
47.862380
0
LINE
8
Layer
10
27.918689
20
47.862380
11
31.600516
21
47.083925
0
LINE
8
Layer
10
31.600516
20
47.083925
11
33.403577
21
46.473928
0
LINE
8
Layer
10
33.403577
20
46.473928
11
35.169933
21
45.714730
0
LINE
8
Layer
10
35.169933
20
45.714730
11
37.199661
21
44.643615
0
LINE
8
Layer
10
37.199661
20
44.643615
11
39.025343
21
43.456974
0
LINE
8
Layer
10
39.025343
20
43.456974
11
40.718050
21
42.103493
0
LINE
8
Layer
10
40.718050
20
42.103493
11
42.348853
21
40.531860
0
LINE
8
Layer
10
42.348853
20
40.531860
11
43.778211
21
38.948637
0
LINE
8
Layer
10
43.778211
20
38.948637
11
44.916537
21
37.457531
0
LINE
8
Layer
10
44.916537
20
37.457531
11
45.892973
21
35.870570
0
LINE
8
Layer
10
45.892973
20
35.870570
11
46.836663
21
33.999780
0
LINE
8
Layer
10
46.836663
20
33.999780
11
47.719559
21
31.864672
0
LINE
8
Layer
10
47.719559
20
31.864672
11
48.391455
21
29.691168
0
LINE
8
Layer
10
48.391455
20
29.691168
11
48.851909
21
27.486222
0
LINE
8
Layer
10
48.851909
20
27.486222
11
49.100479
21
25.256786
0
LINE
8
Layer
10
49.100479
20
25.256786
11
49.136723
21
23.009812
0
LINE
8
Layer
10
49.136723
20
23.009812
11
48.960198
21
20.752251
0
LINE
8
Layer
10
48.960198
20
20.752251
11
48.570462
21
18.491056
0
LINE
8
Layer
10
48.570462
20
18.491056
11
47.967073
21
16.233180
0
LINE
8
Layer
10
47.967073
20
16.233180
11
46.982213
21
13.613811
0
LINE
8
Layer
10
46.982213
20
13.613811
11
45.731137
21
11.181055
0
LINE
8
Layer
10
45.731137
20
11.181055
11
44.193386
21
8.900332
0
LINE
8
Layer
10
44.193386
20
8.900332
11
42.348503
21
6.737060
0
LINE
8
Layer
10
42.348503
20
6.737060
11
39.554716
21
4.262683
0
LINE
8
Layer
10
39.554716
20
4.262683
11
38.206534
21
3.268457
0
LINE
8
Layer
10
38.206534
20
3.268457
11
37.435583
21
2.865500
0
LINE
8
Layer
10
37.435583
20
2.865500
11
37.334548
21
3.467840
0
LINE
8
Layer
10
37.334548
20
3.467840
11
37.371969
21
4.916020
0
LINE
8
Layer
10
37.371969
20
4.916020
11
37.400691
21
7.031523
0
LINE
8
Layer
10
37.400691
20
7.031523
11
37.265777
21
9.465711
0
LINE
8
Layer
10
37.265777
20
9.465711
11
36.999373
21
11.833939
0
LINE
8
Layer
10
36.999373
20
11.833939
11
36.633621
21
13.751560
0
LINE
8
Layer
10
36.633621
20
13.751560
11
36.247208
21
15.617530
0
LINE
8
Layer
10
36.247208
20
15.617530
11
36.616384
21
16.015129
0
LINE
8
Layer
10
36.616384
20
16.015129
11
37.503978
21
16.447871
0
LINE
8
Layer
10
37.503978
20
16.447871
11
38.782910
21
17.044182
0
LINE
8
Layer
10
38.782910
20
17.044182
11
40.034496
21
17.858540
0
LINE
8
Layer
10
40.034496
20
17.858540
11
41.129507
21
18.794551
0
LINE
8
Layer
10
41.129507
20
18.794551
11
41.938718
21
19.755821
0
LINE
8
Layer
10
41.938718
20
19.755821
11
42.488992
21
20.932523
0
LINE
8
Layer
10
42.488992
20
20.932523
11
42.867174
21
22.335821
0
LINE
8
Layer
10
42.867174
20
22.335821
11
43.104599
21
26.059406
0
LINE
8
Layer
10
43.104599
20
26.059406
11
43.051687
21
28.018044
0
LINE
8
Layer
10
43.051687
20
28.018044
11
42.883235
21
29.536211
0
LINE
8
Layer
10
42.883235
20
29.536211
11
42.362636
21
30.886425
0
LINE
8
Layer
10
42.362636
20
30.886425
11
41.488810
21
31.781284
0
LINE
8
Layer
10
41.488810
20
31.781284
11
40.961057
21
32.031521
0
LINE
8
Layer
10
40.961057
20
32.031521
11
40.394939
21
32.136198
0
LINE
8
Layer
10
40.394939
20
32.136198
11
39.807106
21
32.084743
0
LINE
8
Layer
10
39.807106
20
32.084743
11
39.214205
21
31.866581
0
LINE
8
Layer
10
39.214205
20
31.866581
11
38.508339
21
31.325426
0
LINE
8
Layer
10
38.508339
20
31.325426
11
38.093796
21
30.449168
0
LINE
8
Layer
10
38.093796
20
30.449168
11
37.911079
21
29.006841
0
LINE
8
Layer
10
37.911079
20
29.006841
11
37.900695
21
26.767481
0
LINE
8
Layer
10
37.900695
20
26.767481
11
37.867748
21
23.907459
0
LINE
8
Layer
10
37.867748
20
23.907459
11
37.685093
21
23.319859
0
LINE
8
Layer
10
37.685093
20
23.319859
11
37.329377
21
22.868931
0
LINE
8
Layer
10
37.329377
20
22.868931
11
36.357050
21
22.207102
0
LINE
8
Layer
10
36.357050
20
22.207102
11
35.174319
21
21.955953
0
LINE
8
Layer
10
35.174319
20
21.955953
11
33.951682
21
22.121554
0
LINE
8
Layer
10
33.951682
20
22.121554
11
32.859637
21
22.709970
0
LINE
8
Layer
10
32.859637
20
22.709970
11
32.404196
21
23.230180
0
LINE
8
Layer
10
32.404196
20
23.230180
11
32.650651
21
23.825000
0
LINE
8
Layer
10
32.650651
20
23.825000
11
33.476126
21
26.095150
0
LINE
8
Layer
10
33.476126
20
26.095150
11
33.688693
21
27.117693
0
LINE
8
Layer
10
33.688693
20
27.117693
11
33.776889
21
28.257275
0
LINE
8
Layer
10
33.776889
20
28.257275
11
33.611032
21
32.309250
0
LINE
8
Layer
10
33.611032
20
32.309250
11
33.217654
21
36.442221
0
LINE
8
Layer
10
33.217654
20
36.442221
11
32.610330
21
39.108845
0
LINE
8
Layer
10
32.610330
20
39.108845
11
32.199816
21
39.964337
0
LINE
8
Layer
10
32.199816
20
39.964337
11
31.703870
21
40.539716
0
LINE
8
Layer
10
31.703870
20
40.539716
11
31.111841
21
40.863806
0
LINE
8
Layer
10
31.111841
20
40.863806
11
30.413082
21
40.965430
0
LINE
8
Layer
10
30.413082
20
40.965430
11
29.497248
21
40.816679
0
LINE
8
Layer
10
29.497248
20
40.816679
11
28.625270
21
40.342763
0
LINE
8
Layer
10
28.625270
20
40.342763
11
27.741731
21
39.502185
0
LINE
8
Layer
10
27.741731
20
39.502185
11
26.791212
21
38.253450
0
LINE
8
Layer
10
26.791212
20
38.253450
11
25.606835
21
36.736694
0
LINE
8
Layer
10
25.606835
20
36.736694
11
25.159746
21
36.512643
0
LINE
8
Layer
10
25.159746
20
36.512643
11
24.590952
21
36.467510
0
LINE
8
Layer
10
24.590952
20
36.467510
11
23.725333
21
36.611136
0
LINE
8
Layer
10
23.725333
20
36.611136
11
23.275362
21
37.278822
0
LINE
8
Layer
10
23.275362
20
37.278822
11
22.638671
21
38.274119
0
LINE
8
Layer
10
22.638671
20
38.274119
11
21.579812
21
39.527782
0
LINE
8
Layer
10
21.579812
20
39.527782
11
20.282519
21
40.714763
0
LINE
8
Layer
10
20.282519
20
40.714763
11
19.788015
21
40.916351
0
LINE
8
Layer
10
19.788015
20
40.916351
11
19.217582
21
40.965422
0
LINE
8
Layer
10
19.217582
20
40.965422
11
18.318168
21
40.782693
0
LINE
8
Layer
10
18.318168
20
40.782693
11
17.516737
21
40.266945
0
LINE
8
Layer
10
17.516737
20
40.266945
11
16.866957
21
39.466838
0
LINE
8
Layer
10
16.866957
20
39.466838
11
16.422492
21
38.431032
0
LINE
8
Layer
10
16.422492
20
38.431032
11
16.127462
21
36.182745
0
LINE
8
Layer
10
16.127462
20
36.182745
11
15.833025
21
32.234182
0
LINE
8
Layer
10
15.833025
20
32.234182
11
15.679824
21
29.017172
0
LINE
8
Layer
10
15.679824
20
29.017172
11
15.733836
21
26.997231
0
LINE
8
Layer
10
15.733836
20
26.997231
11
16.073094
21
25.470675
0
LINE
8
Layer
10
16.073094
20
25.470675
11
16.775628
21
23.733822
0
LINE
8
Layer
10
16.775628
20
23.733822
11
16.795437
21
23.486125
0
LINE
8
Layer
10
16.795437
20
23.486125
11
16.620271
21
23.209808
0
LINE
8
Layer
10
16.620271
20
23.209808
11
15.562398
21
22.440642
0
LINE
8
Layer
10
15.562398
20
22.440642
11
14.115944
21
21.379849
0
LINE
8
Layer
10
14.115944
20
21.379849
11
12.684396
21
20.038622
0
LINE
8
Layer
10
12.684396
20
20.038622
11
11.451069
21
18.607657
0
LINE
8
Layer
10
11.451069
20
18.607657
11
10.599278
21
17.277652
0
LINE
8
Layer
10
10.599278
20
17.277652
11
9.949439
21
15.411800
0
LINE
8
Layer
10
9.949439
20
15.411800
11
9.827130
21
13.603491
0
LINE
8
Layer
10
9.827130
20
13.603491
11
10.223552
21
11.963412
0
LINE
8
Layer
10
10.223552
20
11.963412
11
10.613538
21
11.241049
0
LINE
8
Layer
10
10.613538
20
11.241049
11
11.129907
21
10.602252
0
LINE
8
Layer
10
11.129907
20
10.602252
11
11.929845
21
9.784056
0
LINE
8
Layer
10
11.929845
20
9.784056
11
11.984215
21
6.192476
0
LINE
8
Layer
10
11.984215
20
6.192476
11
12.038221
21
2.604916
0
LINE
8
Layer
10
12.038221
20
2.604916
11
10.318071
21
3.888406
0
LINE
8
Layer
10
10.318071
20
3.888406
11
10.318100
21
3.888390
 0 
ENDSEC
 0 
EOF