999
"DXF R12 Output" (www.mydxf.blogspot.com)
 0 
SECTION
 2 
HEADER
 9 
$ACADVER
 1 
AC1009
 9 
$EXTMIN
 10 
 0 
 20 
 0 
 9 
$EXTMAX
 10 
 8.5 
 20 
 11 
 0 
ENDSEC
 0 
SECTION
 2 
ENTITIES
0
LINE
8
Layer 1
10
0.793749
20
297.794000
11
-0.793749
21
296.206000
0
LINE
8
Layer 1
10
0.000000
20
298.323000
11
0.000000
21
295.677000
0
LINE
8
Layer 1
10
2.116660
20
295.942000
11
1.058330
21
294.883670
0
LINE
8
Layer 1
10
1.587500
20
296.471000
11
0.529170
21
295.412670
0
LINE
8
Layer 1
10
1.058330
20
297.000000
11
0.000000
21
295.941670
0
LINE
8
Layer 1
10
0.793749
20
297.794000
11
-0.793749
21
296.206000
0
LINE
8
Layer 1
10
0.000000
20
298.323000
11
0.000000
21
295.677000
0
LINE
8
Layer 1
10
2.116660
20
295.942000
11
1.058330
21
294.884000
0
LINE
8
Layer 1
10
1.587500
20
296.471000
11
0.529169
21
295.413000
0
LINE
8
Layer 1
10
1.058330
20
297.000000
11
0.000000
21
295.942000
0
LINE
8
Layer 1
10
0.793749
20
297.794000
11
-0.793749
21
296.206000
0
LINE
8
Layer 1
10
0.000000
20
298.323000
11
0.000000
21
295.677000
0
LINE
8
Layer 1
10
2.116660
20
295.942000
11
1.058330
21
294.884000
0
LINE
8
Layer 1
10
1.587500
20
296.471000
11
0.529169
21
295.413000
0
LINE
8
Layer 1
10
1.058330
20
297.000000
11
0.000000
21
295.942000
0
LINE
8
Layer 1
10
0.793749
20
297.794000
11
-0.793749
21
296.206000
0
LINE
8
Layer 1
10
0.000000
20
298.323000
11
0.000000
21
295.677000
0
LINE
8
Layer 1
10
2.116660
20
295.942000
11
1.058330
21
294.884000
0
LINE
8
Layer 1
10
1.587500
20
296.471000
11
0.529169
21
295.413000
0
LINE
8
Layer 1
10
1.058330
20
297.000000
11
0.000000
21
295.942000
0
LINE
8
Layer 1
10
0.793749
20
297.794000
11
-0.793749
21
296.206000
0
LINE
8
Layer 1
10
0.000000
20
298.323000
11
0.000000
21
295.677000
0
LINE
8
Layer 1
10
2.116660
20
295.942000
11
1.058330
21
294.884000
0
LINE
8
Layer 1
10
1.587500
20
296.471000
11
0.529169
21
295.413000
0
LINE
8
Layer 1
10
1.058330
20
297.000000
11
0.000000
21
295.942000
0
LINE
8
Layer
10
-17.715200
20
10.266200
11
-17.715200
21
13.674000
0
LINE
8
Layer
10
-17.715200
20
13.674000
11
-17.045100
21
13.674000
0
LINE
8
Layer
10
-17.045100
20
13.674000
11
-16.375070
21
13.713687
0
LINE
8
Layer
10
-16.375100
20
13.713700
11
-17.216844
21
16.875470
0
LINE
8
Layer
10
-17.216900
20
16.875400
11
-18.094231
21
20.143000
0
LINE
8
Layer
10
-18.094200
20
20.143000
11
-18.129786
21
20.291166
0
LINE
8
Layer
10
-18.129800
20
20.291200
11
-5.077700
21
23.783700
0
LINE
8
Layer
10
-5.077700
20
23.783700
11
7.974400
21
27.278840
0
LINE
8
Layer
10
7.974390
20
27.278900
11
-4.870410
21
27.292129
0
LINE
8
Layer
10
-4.870400
20
27.292100
11
-17.715200
21
27.307975
0
LINE
8
Layer
10
-17.715200
20
27.308000
11
-17.715253
21
30.744670
0
LINE
8
Layer
10
-17.715200
20
30.744600
11
-17.715200
21
34.182100
0
LINE
8
Layer
10
-17.715200
20
34.182100
11
-4.081440
21
34.182100
0
LINE
8
Layer
10
-4.081440
20
34.182100
11
9.552280
21
34.182100
0
LINE
8
Layer
10
9.552280
20
34.182100
11
9.552280
21
30.746200
0
LINE
8
Layer
10
9.552280
20
30.746200
11
9.552280
21
27.310600
0
LINE
8
Layer
10
9.552280
20
27.310600
11
8.891431
21
27.294725
0
LINE
8
Layer
10
8.891430
20
27.294700
11
8.230581
21
27.278825
0
LINE
8
Layer
10
8.230580
20
27.278900
11
9.065604
21
24.191220
0
LINE
8
Layer
10
9.065610
20
24.191200
11
9.935823
21
20.918310
0
LINE
8
Layer
10
9.935820
20
20.918300
11
9.925025
21
20.746321
0
LINE
8
Layer
10
9.925030
20
20.746300
11
9.659680
21
20.645758
0
LINE
8
Layer
10
9.659680
20
20.645800
11
-3.324020
21
17.166530
0
LINE
8
Layer
10
-3.324020
20
17.166500
11
-16.083820
21
13.726920
0
LINE
8
Layer
10
-16.083800
20
13.726900
11
-3.309400
21
13.673983
0
LINE
8
Layer
10
-3.309420
20
13.674000
11
9.552280
21
13.674000
0
LINE
8
Layer
10
9.552280
20
13.674000
11
9.552280
21
10.266200
0
LINE
8
Layer
10
9.552280
20
10.266200
11
9.552280
21
6.858340
0
LINE
8
Layer
10
9.552280
20
6.858340
11
-4.081440
21
6.858340
0
LINE
8
Layer
10
-4.081440
20
6.858340
11
-17.715200
21
6.858340
0
LINE
8
Layer
10
-17.715200
20
6.858340
11
-17.715200
21
10.266200
0
LINE
8
Layer
10
19.727100
20
6.919190
11
18.387520
21
7.241981
0
LINE
8
Layer
10
18.387500
20
7.241980
11
17.150100
21
7.813479
0
LINE
8
Layer
10
17.150100
20
7.813480
11
16.052210
21
8.615166
0
LINE
8
Layer
10
16.052200
20
8.615170
11
15.131134
21
9.620590
0
LINE
8
Layer
10
15.131200
20
9.620580
11
14.473738
21
10.734470
0
LINE
8
Layer
10
14.473700
20
10.734500
11
13.996234
21
11.954230
0
LINE
8
Layer
10
13.996200
20
11.954200
11
13.834593
21
12.536283
0
LINE
8
Layer
10
13.834600
20
12.536300
11
13.834706
21
20.518770
0
LINE
8
Layer
10
13.834700
20
20.518800
11
13.834700
21
28.501500
0
LINE
8
Layer
10
13.834700
20
28.501500
11
13.995143
21
29.084112
0
LINE
8
Layer
10
13.995200
20
29.084100
11
14.760374
21
30.825590
0
LINE
8
Layer
10
14.760400
20
30.825600
11
15.907420
21
32.283190
0
LINE
8
Layer
10
15.907400
20
32.283200
11
16.817486
21
32.999961
0
LINE
8
Layer
10
16.817500
20
32.999900
11
17.812994
21
33.549968
0
LINE
8
Layer
10
17.813000
20
33.550000
11
18.874270
21
33.924914
0
LINE
8
Layer
10
18.874200
20
33.924900
11
19.981530
21
34.115400
0
LINE
8
Layer
10
19.981600
20
34.115400
11
21.514670
21
34.087883
0
LINE
8
Layer
10
21.514600
20
34.087900
11
22.916940
21
33.749763
0
LINE
8
Layer
10
22.917000
20
33.749800
11
24.519390
21
32.902870
0
LINE
8
Layer
10
24.519400
20
32.902800
11
25.821550
21
31.707140
0
LINE
8
Layer
10
25.821500
20
31.707200
11
26.775641
21
30.219710
0
LINE
8
Layer
10
26.775700
20
30.219700
11
27.333970
21
28.497000
0
LINE
8
Layer
10
27.333900
20
28.497000
11
27.374910
21
28.378202
0
LINE
8
Layer
10
27.374900
20
28.378200
11
27.400035
21
28.669241
0
LINE
8
Layer
10
27.400100
20
28.669200
11
27.425235
21
31.137760
0
LINE
8
Layer
10
27.425200
20
31.137800
11
27.440281
21
34.182100
0
LINE
8
Layer
10
27.440300
20
34.182100
11
30.848400
21
34.182100
0
LINE
8
Layer
10
30.848400
20
34.182100
11
34.256200
21
34.182100
0
LINE
8
Layer
10
34.256200
20
34.182100
11
34.256200
21
20.518800
0
LINE
8
Layer
10
34.256200
20
20.518800
11
34.256200
21
6.855690
0
LINE
8
Layer
10
34.256200
20
6.855690
11
30.848400
21
6.855690
0
LINE
8
Layer
10
30.848400
20
6.855690
11
27.440300
21
6.855690
0
LINE
8
Layer
10
27.440300
20
6.855690
11
27.425219
21
9.901040
0
LINE
8
Layer
10
27.425200
20
9.901040
11
27.410119
21
12.943740
0
LINE
8
Layer
10
27.410100
20
12.943700
11
27.305325
21
12.425117
0
LINE
8
Layer
10
27.305400
20
12.425200
11
26.664845
21
10.567830
0
LINE
8
Layer
10
26.664800
20
10.567800
11
25.521930
21
8.996180
0
LINE
8
Layer
10
25.521900
20
8.996170
11
23.929820
21
7.734110
0
LINE
8
Layer
10
23.929900
20
7.734100
11
23.043097
21
7.316059
0
LINE
8
Layer
10
23.043100
20
7.316060
11
22.079012
21
7.025019
0
LINE
8
Layer
10
22.079000
20
7.025020
11
20.896450
21
6.892728
0
LINE
8
Layer
10
20.896400
20
6.892730
11
19.727100
21
6.919188
0
LINE
8
Layer
10
19.727100
20
6.919190
11
19.727100
21
6.919190
0
LINE
8
Layer
10
27.424900
20
20.505500
11
27.439717
21
27.307930
0
LINE
8
Layer
10
27.439800
20
27.308000
11
24.031100
21
27.308000
0
LINE
8
Layer
10
24.031100
20
27.308000
11
20.622400
21
27.308000
0
LINE
8
Layer
10
20.622400
20
27.308000
11
20.622400
21
20.489700
0
LINE
8
Layer
10
20.622400
20
20.489700
11
20.622400
21
13.671300
0
LINE
8
Layer
10
20.622400
20
13.671300
11
24.016260
21
13.687175
0
LINE
8
Layer
10
24.016300
20
13.687200
11
27.410130
21
13.703075
0
LINE
8
Layer
10
27.410100
20
13.703100
11
27.424917
21
20.505530
0
LINE
8
Layer
10
39.805800
20
17.650700
11
39.822469
21
28.443300
0
LINE
8
Layer
10
39.822500
20
28.443300
11
39.953204
21
28.930397
0
LINE
8
Layer
10
39.953200
20
28.930400
11
40.712553
21
30.758400
0
LINE
8
Layer
10
40.712600
20
30.758400
11
41.888410
21
32.258060
0
LINE
8
Layer
10
41.888400
20
32.258000
11
43.413190
21
33.363700
0
LINE
8
Layer
10
43.413200
20
33.363700
11
45.219510
21
34.010341
0
LINE
8
Layer
10
45.219500
20
34.010400
11
46.539500
21
34.136606
0
LINE
8
Layer
10
46.539500
20
34.136600
11
47.835690
21
34.043467
0
LINE
8
Layer
10
47.835700
20
34.043400
11
48.848520
21
33.768498
0
LINE
8
Layer
10
48.848500
20
33.768500
11
49.797030
21
33.345432
0
LINE
8
Layer
10
49.797000
20
33.345500
11
50.666684
21
32.789082
0
LINE
8
Layer
10
50.666700
20
32.789100
11
51.443251
21
32.113085
0
LINE
8
Layer
10
51.443300
20
32.113000
11
52.112960
21
31.331951
0
LINE
8
Layer
10
52.112900
20
31.332000
11
52.661116
21
30.460199
0
LINE
8
Layer
10
52.661100
20
30.460200
11
53.074114
21
29.511935
0
LINE
8
Layer
10
53.074100
20
29.511900
11
53.337096
21
28.501460
0
LINE
8
Layer
10
53.337100
20
28.501500
11
53.400071
21
28.220248
0
LINE
8
Layer
10
53.400100
20
28.220200
11
53.440581
21
28.239250
0
LINE
8
Layer
10
53.440600
20
28.239300
11
54.090416
21
30.310980
0
LINE
8
Layer
10
54.090400
20
30.311000
11
54.623535
21
31.221166
0
LINE
8
Layer
10
54.623500
20
31.221100
11
55.271464
21
32.022257
0
LINE
8
Layer
10
55.271500
20
32.022300
11
56.020534
21
32.707311
0
LINE
8
Layer
10
56.020500
20
32.707300
11
56.857111
21
33.268216
0
LINE
8
Layer
10
56.857200
20
33.268200
11
57.768159
21
33.697354
0
LINE
8
Layer
10
57.768100
20
33.697400
11
58.739384
21
33.987118
0
LINE
8
Layer
10
58.739400
20
33.987100
11
59.757780
21
34.129710
0
LINE
8
Layer
10
59.757800
20
34.129700
11
60.809780
21
34.117794
0
LINE
8
Layer
10
60.809800
20
34.117800
11
61.904380
21
33.931534
0
LINE
8
Layer
10
61.904300
20
33.931500
11
62.935380
21
33.576165
0
LINE
8
Layer
10
62.935400
20
33.576200
11
63.887105
21
33.066613
0
LINE
8
Layer
10
63.887100
20
33.066600
11
64.743026
21
32.416779
0
LINE
8
Layer
10
64.743100
20
32.416800
11
65.486843
21
31.641307
0
LINE
8
Layer
10
65.486800
20
31.641300
11
66.102220
21
30.754947
0
LINE
8
Layer
10
66.102200
20
30.754900
11
66.573422
21
29.771710
0
LINE
8
Layer
10
66.573400
20
29.771800
11
66.883491
21
28.706320
0
LINE
8
Layer
10
66.883500
20
28.706300
11
66.984835
21
26.797330
0
LINE
8
Layer
10
66.984900
20
26.797300
11
67.000510
21
17.494560
0
LINE
8
Layer
10
67.000500
20
17.494600
11
67.000500
21
6.855690
0
LINE
8
Layer
10
67.000500
20
6.855690
11
63.591900
21
6.855690
0
LINE
8
Layer
10
63.591900
20
6.855690
11
60.183500
21
6.855690
0
LINE
8
Layer
10
60.183500
20
6.855690
11
60.178208
21
13.279770
0
LINE
8
Layer
10
60.178200
20
13.279800
11
60.160208
21
18.486790
0
LINE
8
Layer
10
60.160200
20
18.486800
11
60.136123
21
19.272612
0
LINE
8
Layer
10
60.136100
20
19.272600
11
60.118108
21
19.351975
0
LINE
8
Layer
10
60.118100
20
19.351900
11
60.095610
21
19.277817
0
LINE
8
Layer
10
60.095700
20
19.277900
11
59.835879
21
18.285714
0
LINE
8
Layer
10
59.835800
20
18.285700
11
59.433898
21
17.359660
0
LINE
8
Layer
10
59.433900
20
17.359600
11
58.249890
21
15.745640
0
LINE
8
Layer
10
58.249900
20
15.745700
11
56.638590
21
14.531260
0
LINE
8
Layer
10
56.638600
20
14.531200
11
55.702241
21
14.105221
0
LINE
8
Layer
10
55.702300
20
14.105300
11
54.695030
21
13.814259
0
LINE
8
Layer
10
54.695000
20
13.814200
11
53.455690
21
13.708367
0
LINE
8
Layer
10
53.455700
20
13.708400
11
52.201310
21
13.782483
0
LINE
8
Layer
10
52.201300
20
13.782500
11
50.866210
21
14.171437
0
LINE
8
Layer
10
50.866200
20
14.171400
11
49.637480
21
14.822274
0
LINE
8
Layer
10
49.637500
20
14.822300
11
48.560650
21
15.706007
0
LINE
8
Layer
10
48.560600
20
15.706000
11
47.681655
21
16.788140
0
LINE
8
Layer
10
47.681700
20
16.788100
11
47.064692
21
17.962850
0
LINE
8
Layer
10
47.064700
20
17.962900
11
46.647453
21
19.354610
0
LINE
8
Layer
10
46.647400
20
19.354600
11
46.614856
21
13.163360
0
LINE
8
Layer
10
46.614900
20
13.163300
11
46.608021
21
6.855640
0
LINE
8
Layer
10
46.608000
20
6.855690
11
43.198600
21
6.855690
0
LINE
8
Layer
10
43.198600
20
6.855690
11
39.789200
21
6.855690
0
LINE
8
Layer
10
39.789200
20
6.855690
11
39.805869
21
17.650690
 0 
ENDSEC
 0 
EOF