  0
SECTION
  2
HEADER
  9
$ACADVER
  1
AC1006
  9
$EXTMIN
 10
0.000000
 20
0.000000
 30
0.000000
  9
$EXTMAX
 10
1600.000000
 20
644.000000
 30
0.000000
  0
ENDSEC
  0
SECTION
  2
ENTITIES
  0
POLYLINE
  8
0
 66
1
 70
1
  0
VERTEX
  8
0
 10
9.666667
 20
109.333333
 42
0.182179
  0
VERTEX
  8
0
 10
9.398754
 20
108.741357
 42
0.003328
  0
VERTEX
  8
0
 10
9.195833
 20
105.242488
 42
0.007766
  0
VERTEX
  8
0
 10
9.048220
 20
101.114525
 42
0.005053
  0
VERTEX
  8
0
 10
9.000000
 20
96.343222
 42
0.000000
  0
VERTEX
  8
0
 10
9.000000
 20
84.019777
 42
0.000000
  0
VERTEX
  8
0
 10
55.430780
 20
83.759888
 42
0.000000
  0
VERTEX
  8
0
 10
101.861561
 20
83.500000
 42
0.000000
  0
VERTEX
  8
0
 10
55.180780
 20
71.072121
 42
0.000369
  0
VERTEX
  8
0
 10
37.254033
 20
66.285276
 42
0.000607
  0
VERTEX
  8
0
 10
22.095696
 20
62.205921
 42
0.000039
  0
VERTEX
  8
0
 10
8.460178
 20
58.517470
 42
0.097052
  0
VERTEX
  8
0
 10
8.102441
 20
58.341229
 42
0.297613
  0
VERTEX
  8
0
 10
7.940639
 20
57.885290
 42
0.000612
  0
VERTEX
  8
0
 10
9.812845
 20
50.192844
 42
0.004358
  0
VERTEX
  8
0
 10
11.741886
 20
42.596299
 42
0.005852
  0
VERTEX
  8
0
 10
13.630029
 20
35.750000
 42
-0.077299
  0
VERTEX
  8
0
 10
13.737865
 20
34.902190
 42
-0.212996
  0
VERTEX
  8
0
 10
13.483032
 20
34.371257
 42
-0.145157
  0
VERTEX
  8
0
 10
12.821921
 20
34.079758
 42
-0.031756
  0
VERTEX
  8
0
 10
11.567388
 20
34.000000
 42
0.000000
  0
VERTEX
  8
0
 10
9.000000
 20
34.000000
 42
0.000000
  0
VERTEX
  8
0
 10
9.000000
 20
21.500000
 42
0.000000
  0
VERTEX
  8
0
 10
9.000000
 20
9.000000
 42
0.000000
  0
VERTEX
  8
0
 10
59.500000
 20
9.000000
 42
0.000000
  0
VERTEX
  8
0
 10
110.000000
 20
9.000000
 42
0.000000
  0
VERTEX
  8
0
 10
110.000000
 20
21.500000
 42
0.000000
  0
VERTEX
  8
0
 10
110.000000
 20
34.000000
 42
0.000000
  0
VERTEX
  8
0
 10
62.750000
 20
34.066140
 42
0.000000
  0
VERTEX
  8
0
 10
15.500000
 20
34.132280
 42
0.000000
  0
VERTEX
  8
0
 10
62.942192
 20
46.892716
 42
0.001822
  0
VERTEX
  8
0
 10
81.157746
 20
51.863381
 42
0.002980
  0
VERTEX
  8
0
 10
96.554730
 20
56.224244
 42
0.000429
  0
VERTEX
  8
0
 10
110.163445
 20
60.179054
 42
0.246140
  0
VERTEX
  8
0
 10
110.746903
 20
60.740710
 42
0.140802
  0
VERTEX
  8
0
 10
110.800734
 20
62.022100
 42
0.001542
  0
VERTEX
  8
0
 10
108.695633
 20
70.592181
 42
0.004706
  0
VERTEX
  8
0
 10
106.641016
 20
78.527337
 42
0.025914
  0
VERTEX
  8
0
 10
105.274119
 20
82.728041
 42
-0.168245
  0
VERTEX
  8
0
 10
105.256346
 20
83.265780
 42
-0.184510
  0
VERTEX
  8
0
 10
105.577264
 20
83.674831
 42
-0.101559
  0
VERTEX
  8
0
 10
106.288160
 20
83.924872
 42
-0.033960
  0
VERTEX
  8
0
 10
107.393011
 20
84.000000
 42
0.000000
  0
VERTEX
  8
0
 10
110.000000
 20
84.000000
 42
0.000000
  0
VERTEX
  8
0
 10
110.000000
 20
97.000000
 42
0.000000
  0
VERTEX
  8
0
 10
110.000000
 20
110.000000
 42
0.000000
  0
VERTEX
  8
0
 10
60.166667
 20
110.000000
 42
0.001253
  0
VERTEX
  8
0
 10
41.012504
 20
109.952013
 42
0.002047
  0
VERTEX
  8
0
 10
24.776042
 20
109.804167
 42
0.000239
  0
VERTEX
  8
0
 10
10.312731
 20
109.606316
 42
0.195236
  0
SEQEND
  0
POLYLINE
  8
0
 66
1
 70
1
  0
VERTEX
  8
0
 10
146.326400
 20
108.944511
 42
0.058586
  0
VERTEX
  8
0
 10
140.505055
 20
107.081779
 42
0.059223
  0
VERTEX
  8
0
 10
135.297538
 20
103.924499
 42
0.059606
  0
VERTEX
  8
0
 10
131.003555
 20
99.656079
 42
0.060803
  0
VERTEX
  8
0
 10
127.871078
 20
94.522192
 42
0.067913
  0
VERTEX
  8
0
 10
126.857507
 20
91.135289
 42
0.025373
  0
VERTEX
  8
0
 10
126.339117
 20
86.189198
 42
0.011735
  0
VERTEX
  8
0
 10
126.088453
 20
77.898107
 42
0.001508
  0
VERTEX
  8
0
 10
126.021962
 20
60.116020
 42
0.002422
  0
VERTEX
  8
0
 10
126.079752
 20
46.090828
 42
0.006409
  0
VERTEX
  8
0
 10
126.298266
 20
36.060273
 42
0.006824
  0
VERTEX
  8
0
 10
126.646677
 20
28.844397
 42
0.056408
  0
VERTEX
  8
0
 10
127.216116
 20
25.616020
 42
0.085510
  0
VERTEX
  8
0
 10
129.354959
 20
21.276046
 42
0.039246
  0
VERTEX
  8
0
 10
133.464845
 20
16.464845
 42
0.039246
  0
VERTEX
  8
0
 10
138.276046
 20
12.354959
 42
0.085510
  0
VERTEX
  8
0
 10
142.616020
 20
10.216116
 42
0.098123
  0
VERTEX
  8
0
 10
153.522032
 20
9.213603
 42
0.112446
  0
VERTEX
  8
0
 10
163.412737
 20
12.578285
 42
0.113738
  0
VERTEX
  8
0
 10
170.790669
 20
19.853059
 42
0.102197
  0
VERTEX
  8
0
 10
174.601317
 20
29.908234
 42
0.000000
  0
VERTEX
  8
0
 10
175.255616
 20
34.000000
 42
0.000000
  0
VERTEX
  8
0
 10
163.127808
 20
34.000000
 42
0.000000
  0
VERTEX
  8
0
 10
151.000000
 20
34.000000
 42
0.000000
  0
VERTEX
  8
0
 10
151.000000
 20
59.000000
 42
0.000000
  0
VERTEX
  8
0
 10
151.000000
 20
84.000000
 42
0.000000
  0
VERTEX
  8
0
 10
163.135924
 20
84.000000
 42
0.000000
  0
VERTEX
  8
0
 10
175.271848
 20
84.000000
 42
0.000000
  0
VERTEX
  8
0
 10
174.631886
 20
88.669033
 42
0.079840
  0
VERTEX
  8
0
 10
172.586453
 20
95.386884
 42
0.066732
  0
VERTEX
  8
0
 10
168.445385
 20
101.596253
 42
0.069164
  0
VERTEX
  8
0
 10
162.998607
 20
106.289789
 42
0.102005
  0
VERTEX
  8
0
 10
157.131940
 20
108.564154
 42
-0.000949
  0
VERTEX
  8
0
 10
155.631431
 20
108.819299
 42
-0.000938
  0
VERTEX
  8
0
 10
154.126257
 20
109.081084
 42
-0.000920
  0
VERTEX
  8
0
 10
152.809484
 20
109.315146
 42
-0.003627
  0
VERTEX
  8
0
 10
152.000000
 20
109.466641
 42
0.058397
  0
VERTEX
  8
0
 10
151.162947
 20
109.530047
 42
0.012679
  0
VERTEX
  8
0
 10
149.714630
 20
109.433717
 42
0.013054
  0
VERTEX
  8
0
 10
148.034260
 20
109.234718
 42
0.012167
  0
SEQEND
  0
POLYLINE
  8
0
 66
1
 70
1
  0
VERTEX
  8
0
 10
176.666667
 20
109.333333
 42
0.195236
  0
VERTEX
  8
0
 10
176.393684
 20
108.687269
 42
0.000239
  0
VERTEX
  8
0
 10
176.195833
 20
94.223958
 42
0.002047
  0
VERTEX
  8
0
 10
176.047987
 20
77.987496
 42
0.001253
  0
VERTEX
  8
0
 10
176.000000
 20
58.833333
 42
0.000000
  0
VERTEX
  8
0
 10
176.000000
 20
9.000000
 42
0.000000
  0
VERTEX
  8
0
 10
188.500000
 20
9.000000
 42
0.000000
  0
VERTEX
  8
0
 10
201.000000
 20
9.000000
 42
0.000000
  0
VERTEX
  8
0
 10
201.000000
 20
59.500000
 42
0.000000
  0
VERTEX
  8
0
 10
201.000000
 20
110.000000
 42
0.000000
  0
VERTEX
  8
0
 10
189.166667
 20
110.000000
 42
0.005262
  0
VERTEX
  8
0
 10
184.583278
 20
109.951767
 42
0.008059
  0
VERTEX
  8
0
 10
180.613542
 20
109.804167
 42
0.003573
  0
VERTEX
  8
0
 10
177.255781
 20
109.601013
 42
0.181407
  0
SEQEND
  0
POLYLINE
  8
0
 66
1
 70
1
  0
VERTEX
  8
0
 10
242.326400
 20
108.916140
 42
0.018729
  0
VERTEX
  8
0
 10
240.512009
 20
108.503648
 42
0.013258
  0
VERTEX
  8
0
 10
238.508738
 20
107.911270
 42
0.013408
  0
VERTEX
  8
0
 10
236.622562
 20
107.242275
 42
0.027406
  0
VERTEX
  8
0
 10
235.190902
 20
106.598719
 42
0.068692
  0
VERTEX
  8
0
 10
231.816332
 20
104.217903
 42
0.031022
  0
VERTEX
  8
0
 10
228.089381
 20
100.274474
 42
0.031008
  0
VERTEX
  8
0
 10
224.885307
 20
95.909071
 42
0.070132
  0
VERTEX
  8
0
 10
223.176017
 20
92.193157
 42
0.061538
  0
VERTEX
  8
0
 10
222.614048
 20
88.883155
 42
0.004566
  0
VERTEX
  8
0
 10
222.282177
 20
79.699891
 42
0.004982
  0
VERTEX
  8
0
 10
222.064585
 20
66.922159
 42
0.001766
  0
VERTEX
  8
0
 10
222.000000
 20
48.633980
 42
0.000000
  0
VERTEX
  8
0
 10
222.000000
 20
9.000000
 42
0.000000
  0
VERTEX
  8
0
 10
234.500000
 20
9.000000
 42
0.000000
  0
VERTEX
  8
0
 10
247.000000
 20
9.000000
 42
0.000000
  0
VERTEX
  8
0
 10
247.070462
 20
31.750000
 42
-0.001141
  0
VERTEX
  8
0
 10
247.145200
 20
45.643749
 42
-0.017985
  0
VERTEX
  8
0
 10
247.351700
 20
50.373957
 42
-0.339334
  0
VERTEX
  8
0
 10
247.895814
 20
50.977238
 42
-0.365660
  0
VERTEX
  8
0
 10
248.573255
 20
50.590729
 42
0.102129
  0
VERTEX
  8
0
 10
253.973574
 20
41.875894
 42
0.102683
  0
VERTEX
  8
0
 10
262.373930
 20
36.031721
 42
0.103495
  0
VERTEX
  8
0
 10
272.348881
 20
34.041516
 42
0.105391
  0
VERTEX
  8
0
 10
282.214635
 20
36.240725
 42
0.050401
  0
VERTEX
  8
0
 10
286.473556
 20
38.736387
 42
0.043079
  0
VERTEX
  8
0
 10
290.396423
 20
42.155350
 42
0.044065
  0
VERTEX
  8
0
 10
293.580079
 20
46.094325
 42
0.061189
  0
VERTEX
  8
0
 10
295.630856
 20
50.137077
 42
-0.636712
  0
VERTEX
  8
0
 10
296.203285
 20
50.188516
 42
-0.115030
  0
VERTEX
  8
0
 10
296.637265
 20
48.772594
 42
-0.014660
  0
VERTEX
  8
0
 10
296.843501
 20
43.492267
 42
-0.001575
  0
VERTEX
  8
0
 10
296.923922
 20
31.250000
 42
0.000000
  0
VERTEX
  8
0
 10
297.000000
 20
9.000000
 42
0.000000
  0
VERTEX
  8
0
 10
310.051780
 20
9.000000
 42
0.000000
  0
VERTEX
  8
0
 10
323.103561
 20
9.000000
 42
0.000000
  0
VERTEX
  8
0
 10
322.801780
 20
49.750000
 42
0.000972
  0
VERTEX
  8
0
 10
322.571997
 20
74.324030
 42
0.009426
  0
VERTEX
  8
0
 10
322.257862
 20
84.741348
 42
0.021209
  0
VERTEX
  8
0
 10
321.717713
 20
90.634123
 42
0.089348
  0
VERTEX
  8
0
 10
320.631945
 20
94.000000
 42
0.023546
  0
VERTEX
  8
0
 10
318.079778
 20
98.283361
 42
0.041730
  0
VERTEX
  8
0
 10
315.535583
 20
101.508960
 42
0.045477
  0
VERTEX
  8
0
 10
312.655601
 20
104.079311
 42
0.034846
  0
VERTEX
  8
0
 10
309.097207
 20
106.350577
 42
0.114351
  0
VERTEX
  8
0
 10
298.762824
 20
109.218700
 42
0.106240
  0
VERTEX
  8
0
 10
287.916348
 20
107.371561
 42
0.107589
  0
VERTEX
  8
0
 10
278.890729
 20
101.266521
 42
0.120073
  0
VERTEX
  8
0
 10
273.654903
 20
92.179412
 42
0.000000
  0
VERTEX
  8
0
 10
272.377221
 20
87.797581
 42
0.000000
  0
VERTEX
  8
0
 10
271.110668
 20
92.024958
 42
0.046932
  0
VERTEX
  8
0
 10
270.301676
 20
94.021992
 42
0.022399
  0
VERTEX
  8
0
 10
268.915482
 20
96.423618
 42
0.021561
  0
VERTEX
  8
0
 10
267.192501
 20
98.881576
 42
0.024386
  0
VERTEX
  8
0
 10
265.329524
 20
101.078799
 42
0.057371
  0
VERTEX
  8
0
 10
260.332730
 20
105.323168
 42
0.065385
  0
VERTEX
  8
0
 10
254.708993
 20
108.102134
 42
0.066455
  0
VERTEX
  8
0
 10
248.638360
 20
109.305290
 42
0.062339
  0
SEQEND
  0
ENDSEC
  0
EOF
